<svg width="185" height="131" viewBox="0 0 185 131" fill="none" xmlns="http://www.w3.org/2000/svg">
<g id="Group 128">
<circle id="Ellipse 66" cx="2.5" cy="2.5" r="2.5" fill="#D9D9D9" fill-opacity="0.8"/>
<circle id="Ellipse 76" cx="2.5" cy="20.5" r="2.5" fill="#D9D9D9" fill-opacity="0.8"/>
<circle id="Ellipse 86" cx="2.5" cy="38.5" r="2.5" fill="#D9D9D9" fill-opacity="0.8"/>
<circle id="Ellipse 96" cx="2.5" cy="56.5" r="2.5" fill="#D9D9D9" fill-opacity="0.8"/>
<circle id="Ellipse 106" cx="2.5" cy="74.5" r="2.5" fill="#D9D9D9" fill-opacity="0.8"/>
<circle id="Ellipse 116" cx="2.5" cy="92.5" r="2.5" fill="#D9D9D9" fill-opacity="0.8"/>
<circle id="Ellipse 126" cx="2.5" cy="110.5" r="2.5" fill="#D9D9D9" fill-opacity="0.8"/>
<circle id="Ellipse 136" cx="2.5" cy="128.5" r="2.5" fill="#D9D9D9" fill-opacity="0.8"/>
<circle id="Ellipse 67" cx="22.5" cy="2.5" r="2.5" fill="#D9D9D9" fill-opacity="0.8"/>
<circle id="Ellipse 77" cx="22.5" cy="20.5" r="2.5" fill="#D9D9D9" fill-opacity="0.8"/>
<circle id="Ellipse 87" cx="22.5" cy="38.5" r="2.5" fill="#D9D9D9" fill-opacity="0.8"/>
<circle id="Ellipse 97" cx="22.5" cy="56.5" r="2.5" fill="#D9D9D9" fill-opacity="0.8"/>
<circle id="Ellipse 107" cx="22.5" cy="74.5" r="2.5" fill="#D9D9D9" fill-opacity="0.8"/>
<circle id="Ellipse 117" cx="22.5" cy="92.5" r="2.5" fill="#D9D9D9" fill-opacity="0.8"/>
<circle id="Ellipse 127" cx="22.5" cy="110.5" r="2.5" fill="#D9D9D9" fill-opacity="0.8"/>
<circle id="Ellipse 137" cx="22.5" cy="128.5" r="2.5" fill="#D9D9D9" fill-opacity="0.8"/>
<circle id="Ellipse 68" cx="42.5" cy="2.5" r="2.5" fill="#D9D9D9" fill-opacity="0.8"/>
<circle id="Ellipse 78" cx="42.5" cy="20.5" r="2.5" fill="#D9D9D9" fill-opacity="0.8"/>
<circle id="Ellipse 88" cx="42.5" cy="38.5" r="2.5" fill="#D9D9D9" fill-opacity="0.8"/>
<circle id="Ellipse 98" cx="42.5" cy="56.5" r="2.5" fill="#D9D9D9" fill-opacity="0.8"/>
<circle id="Ellipse 108" cx="42.5" cy="74.5" r="2.5" fill="#D9D9D9" fill-opacity="0.8"/>
<circle id="Ellipse 118" cx="42.5" cy="92.5" r="2.5" fill="#D9D9D9" fill-opacity="0.8"/>
<circle id="Ellipse 128" cx="42.5" cy="110.5" r="2.5" fill="#D9D9D9" fill-opacity="0.8"/>
<circle id="Ellipse 138" cx="42.5" cy="128.5" r="2.5" fill="#D9D9D9" fill-opacity="0.8"/>
<circle id="Ellipse 69" cx="62.5" cy="2.5" r="2.5" fill="#D9D9D9" fill-opacity="0.8"/>
<circle id="Ellipse 79" cx="62.5" cy="20.5" r="2.5" fill="#D9D9D9" fill-opacity="0.8"/>
<circle id="Ellipse 89" cx="62.5" cy="38.5" r="2.5" fill="#D9D9D9" fill-opacity="0.8"/>
<circle id="Ellipse 99" cx="62.5" cy="56.5" r="2.5" fill="#D9D9D9" fill-opacity="0.8"/>
<circle id="Ellipse 109" cx="62.5" cy="74.5" r="2.5" fill="#D9D9D9" fill-opacity="0.8"/>
<circle id="Ellipse 119" cx="62.5" cy="92.5" r="2.5" fill="#D9D9D9" fill-opacity="0.8"/>
<circle id="Ellipse 129" cx="62.5" cy="110.5" r="2.5" fill="#D9D9D9" fill-opacity="0.8"/>
<circle id="Ellipse 139" cx="62.5" cy="128.5" r="2.5" fill="#D9D9D9" fill-opacity="0.8"/>
<circle id="Ellipse 70" cx="82.5" cy="2.5" r="2.5" fill="#D9D9D9" fill-opacity="0.8"/>
<circle id="Ellipse 80" cx="82.5" cy="20.5" r="2.5" fill="#D9D9D9" fill-opacity="0.8"/>
<circle id="Ellipse 90" cx="82.5" cy="38.5" r="2.5" fill="#D9D9D9" fill-opacity="0.8"/>
<circle id="Ellipse 100" cx="82.5" cy="56.5" r="2.5" fill="#D9D9D9" fill-opacity="0.8"/>
<circle id="Ellipse 110" cx="82.5" cy="74.5" r="2.5" fill="#D9D9D9" fill-opacity="0.8"/>
<circle id="Ellipse 120" cx="82.5" cy="92.5" r="2.5" fill="#D9D9D9" fill-opacity="0.8"/>
<circle id="Ellipse 130" cx="82.5" cy="110.5" r="2.5" fill="#D9D9D9" fill-opacity="0.8"/>
<circle id="Ellipse 140" cx="82.5" cy="128.5" r="2.5" fill="#D9D9D9" fill-opacity="0.8"/>
<circle id="Ellipse 71" cx="102.5" cy="2.5" r="2.5" fill="#D9D9D9" fill-opacity="0.8"/>
<circle id="Ellipse 81" cx="102.5" cy="20.5" r="2.5" fill="#D9D9D9" fill-opacity="0.8"/>
<circle id="Ellipse 91" cx="102.5" cy="38.5" r="2.5" fill="#D9D9D9" fill-opacity="0.8"/>
<circle id="Ellipse 101" cx="102.5" cy="56.5" r="2.5" fill="#D9D9D9" fill-opacity="0.8"/>
<circle id="Ellipse 111" cx="102.5" cy="74.5" r="2.5" fill="#D9D9D9" fill-opacity="0.8"/>
<circle id="Ellipse 121" cx="102.5" cy="92.5" r="2.5" fill="#D9D9D9" fill-opacity="0.8"/>
<circle id="Ellipse 131" cx="102.5" cy="110.5" r="2.5" fill="#D9D9D9" fill-opacity="0.8"/>
<circle id="Ellipse 141" cx="102.5" cy="128.5" r="2.5" fill="#D9D9D9" fill-opacity="0.8"/>
<circle id="Ellipse 72" cx="122.5" cy="2.5" r="2.5" fill="#D9D9D9" fill-opacity="0.8"/>
<circle id="Ellipse 82" cx="122.5" cy="20.5" r="2.5" fill="#D9D9D9" fill-opacity="0.8"/>
<circle id="Ellipse 92" cx="122.5" cy="38.5" r="2.5" fill="#D9D9D9" fill-opacity="0.8"/>
<circle id="Ellipse 102" cx="122.5" cy="56.5" r="2.5" fill="#D9D9D9" fill-opacity="0.8"/>
<circle id="Ellipse 112" cx="122.5" cy="74.5" r="2.5" fill="#D9D9D9" fill-opacity="0.8"/>
<circle id="Ellipse 122" cx="122.5" cy="92.5" r="2.5" fill="#D9D9D9" fill-opacity="0.8"/>
<circle id="Ellipse 132" cx="122.5" cy="110.5" r="2.5" fill="#D9D9D9" fill-opacity="0.8"/>
<circle id="Ellipse 142" cx="122.5" cy="128.5" r="2.5" fill="#D9D9D9" fill-opacity="0.8"/>
<circle id="Ellipse 73" cx="142.5" cy="2.5" r="2.5" fill="#D9D9D9" fill-opacity="0.8"/>
<circle id="Ellipse 83" cx="142.5" cy="20.5" r="2.5" fill="#D9D9D9" fill-opacity="0.8"/>
<circle id="Ellipse 93" cx="142.5" cy="38.5" r="2.5" fill="#D9D9D9" fill-opacity="0.8"/>
<circle id="Ellipse 103" cx="142.5" cy="56.5" r="2.5" fill="#D9D9D9" fill-opacity="0.8"/>
<circle id="Ellipse 113" cx="142.5" cy="74.5" r="2.5" fill="#D9D9D9" fill-opacity="0.8"/>
<circle id="Ellipse 123" cx="142.5" cy="92.5" r="2.5" fill="#D9D9D9" fill-opacity="0.8"/>
<circle id="Ellipse 133" cx="142.5" cy="110.5" r="2.5" fill="#D9D9D9" fill-opacity="0.8"/>
<circle id="Ellipse 143" cx="142.5" cy="128.5" r="2.5" fill="#D9D9D9" fill-opacity="0.8"/>
<circle id="Ellipse 74" cx="162.5" cy="2.5" r="2.5" fill="#D9D9D9" fill-opacity="0.8"/>
<circle id="Ellipse 84" cx="162.5" cy="20.5" r="2.5" fill="#D9D9D9" fill-opacity="0.8"/>
<circle id="Ellipse 94" cx="162.5" cy="38.5" r="2.5" fill="#D9D9D9" fill-opacity="0.8"/>
<circle id="Ellipse 104" cx="162.5" cy="56.5" r="2.5" fill="#D9D9D9" fill-opacity="0.8"/>
<circle id="Ellipse 114" cx="162.5" cy="74.5" r="2.5" fill="#D9D9D9" fill-opacity="0.8"/>
<circle id="Ellipse 124" cx="162.5" cy="92.5" r="2.5" fill="#D9D9D9" fill-opacity="0.8"/>
<circle id="Ellipse 134" cx="162.5" cy="110.5" r="2.5" fill="#D9D9D9" fill-opacity="0.8"/>
<circle id="Ellipse 144" cx="162.5" cy="128.5" r="2.5" fill="#D9D9D9" fill-opacity="0.8"/>
<circle id="Ellipse 75" cx="182.5" cy="2.5" r="2.5" fill="#D9D9D9" fill-opacity="0.8"/>
<circle id="Ellipse 85" cx="182.5" cy="20.5" r="2.5" fill="#D9D9D9" fill-opacity="0.8"/>
<circle id="Ellipse 95" cx="182.5" cy="38.5" r="2.5" fill="#D9D9D9" fill-opacity="0.8"/>
<circle id="Ellipse 105" cx="182.5" cy="56.5" r="2.5" fill="#D9D9D9" fill-opacity="0.8"/>
<circle id="Ellipse 115" cx="182.5" cy="74.5" r="2.5" fill="#D9D9D9" fill-opacity="0.8"/>
<circle id="Ellipse 125" cx="182.5" cy="92.5" r="2.5" fill="#D9D9D9" fill-opacity="0.8"/>
<circle id="Ellipse 135" cx="182.5" cy="110.5" r="2.5" fill="#D9D9D9" fill-opacity="0.8"/>
<circle id="Ellipse 145" cx="182.5" cy="128.5" r="2.5" fill="#D9D9D9" fill-opacity="0.8"/>
</g>
</svg>
