<svg width="40" height="39" viewBox="0 0 40 39" fill="none" xmlns="http://www.w3.org/2000/svg">
<g id="ant-design:instagram-filled">
<path id="Vector" d="M19.8663 14.3006C17.0942 14.3006 14.832 16.5629 14.832 19.335C14.832 22.1071 17.0942 24.3693 19.8663 24.3693C22.6385 24.3693 24.9007 22.1071 24.9007 19.335C24.9007 16.5629 22.6385 14.3006 19.8663 14.3006ZM34.9657 19.335C34.9657 17.2502 34.9846 15.1843 34.8675 13.1034C34.7504 10.6863 34.199 8.54109 32.4315 6.77359C30.6602 5.0023 28.5188 4.45468 26.1017 4.3376C24.017 4.22052 21.9511 4.2394 19.8701 4.2394C17.7854 4.2394 15.7195 4.22052 13.6385 4.3376C11.2214 4.45468 9.07625 5.00608 7.30874 6.77359C5.53746 8.54487 4.98983 10.6863 4.87276 13.1034C4.75568 15.1881 4.77456 17.254 4.77456 19.335C4.77456 21.4159 4.75568 23.4856 4.87276 25.5666C4.98983 27.9837 5.54124 30.1288 7.30874 31.8963C9.08002 33.6676 11.2214 34.2153 13.6385 34.3323C15.7233 34.4494 17.7891 34.4305 19.8701 34.4305C21.9549 34.4305 24.0207 34.4494 26.1017 34.3323C28.5188 34.2153 30.664 33.6639 32.4315 31.8963C34.2028 30.1251 34.7504 27.9837 34.8675 25.5666C34.9883 23.4856 34.9657 21.4197 34.9657 19.335ZM19.8663 27.081C15.5798 27.081 12.1203 23.6215 12.1203 19.335C12.1203 15.0484 15.5798 11.5889 19.8663 11.5889C24.1529 11.5889 27.6124 15.0484 27.6124 19.335C27.6124 23.6215 24.1529 27.081 19.8663 27.081ZM27.9296 13.0807C26.9288 13.0807 26.1206 12.2725 26.1206 11.2717C26.1206 10.2708 26.9288 9.46261 27.9296 9.46261C28.9305 9.46261 29.7387 10.2708 29.7387 11.2717C29.739 11.5093 29.6924 11.7447 29.6016 11.9643C29.5108 12.1839 29.3776 12.3835 29.2095 12.5515C29.0415 12.7196 28.8419 12.8528 28.6223 12.9436C28.4027 13.0344 28.1673 13.081 27.9296 13.0807Z" fill="white" fill-opacity="0.8"/>
</g>
</svg>
