<svg width="31" height="26" viewBox="0 0 31 26" fill="none" xmlns="http://www.w3.org/2000/svg">
<path id="Vector" d="M30.3323 0.990002C28.8157 1.73314 27.3294 2.03495 25.7824 2.49145C24.0823 0.572933 21.5617 0.46677 19.1397 1.37371C16.7176 2.28064 15.1313 4.49793 15.1661 7.04129V8.5579C10.2447 8.68378 5.86171 6.44223 3.03323 2.49145C3.03323 2.49145 -3.30925 13.7644 9.09968 19.1742C6.26058 21.0654 3.42906 22.3409 0 22.2074C5.01696 24.9419 10.4843 25.8822 15.2177 24.5081C20.6472 22.9308 25.1091 18.8618 26.8213 12.7665C27.3321 10.9127 27.5857 8.99751 27.5751 7.07466C27.572 6.69702 29.8652 2.8706 30.3323 0.988485V0.990002Z" fill="white" fill-opacity="0.8"/>
</svg>
