<svg width="165" height="156" viewBox="0 0 165 156" fill="none" xmlns="http://www.w3.org/2000/svg">
<path d="M33.956 139.927L43.9415 131.412L45.1133 132.194L41.7794 142.913L50.4614 135.765L51.6131 136.512L47.5065 148.974L46.3798 148.222L50.1246 137.408L41.2871 144.821L40.1153 144.039L43.6498 133.085L35.0827 140.679L33.956 139.927Z" fill="black"/>
<path d="M33.7229 128.936C32.9388 129.575 32.1272 129.98 31.2881 130.152C30.432 130.321 29.6208 130.26 28.8546 129.968C28.0714 129.674 27.3945 129.177 26.8239 128.477C26.2304 127.749 25.8887 126.987 25.7986 126.19C25.701 125.384 25.8184 124.652 26.151 123.992L24.4708 125.362L23.6719 124.381L31.3167 118.15L32.1156 119.13L30.4214 120.511C31.142 120.328 31.8917 120.362 32.6708 120.612C33.4329 120.861 34.1107 121.349 34.7041 122.077C35.2671 122.768 35.6135 123.527 35.7433 124.353C35.8655 125.17 35.7572 125.981 35.4185 126.785C35.0722 127.58 34.507 128.297 33.7229 128.936ZM28.2932 122.246C27.6771 122.748 27.2384 123.315 26.9772 123.948C26.7159 124.58 26.638 125.219 26.7436 125.863C26.8415 126.498 27.1035 127.076 27.5296 127.599C27.9709 128.14 28.4878 128.527 29.0805 128.758C29.6732 128.99 30.3056 129.042 30.9777 128.913C31.6329 128.783 32.2779 128.459 32.9126 127.942C33.538 127.432 33.9899 126.862 34.2681 126.231C34.5294 125.599 34.6111 124.965 34.5131 124.33C34.4058 123.703 34.1315 123.119 33.6902 122.578C33.2642 122.055 32.7501 121.682 32.1481 121.458C31.5385 121.224 30.8976 121.172 30.2255 121.3C29.5534 121.429 28.9093 121.744 28.2932 122.246Z" fill="black"/>
<path d="M19.104 114.615L24.5659 111.847C25.1029 111.574 25.4218 111.285 25.5224 110.977C25.623 110.67 25.5427 110.258 25.2814 109.742L24.7587 108.711L25.7254 108.221L26.3379 109.43C26.7408 110.224 26.8576 110.908 26.6884 111.48C26.5085 112.057 25.9943 112.561 25.1457 112.991L19.6838 115.759L20.3045 116.984L19.3539 117.466L18.7332 116.241L16.5259 117.36L15.9461 116.216L18.1534 115.097L16.9284 112.68L17.879 112.198L19.104 114.615Z" fill="black"/>
<path d="M18.7994 104.557C17.8119 104.826 16.8983 104.863 16.0586 104.668C15.2073 104.476 14.4891 104.085 13.9039 103.496C13.3071 102.91 12.8867 102.169 12.6427 101.275C12.3225 100.101 12.3499 99.0578 12.7248 98.1442C13.0965 97.219 13.7518 96.5097 14.6906 96.0164L15.0472 97.3234C14.4062 97.673 13.9684 98.1731 13.734 98.8238C13.4848 99.466 13.4696 100.188 13.6883 100.989C13.8626 101.628 14.1647 102.164 14.5946 102.596C15.0245 103.028 15.5711 103.316 16.2344 103.459C16.8829 103.594 17.6254 103.548 18.4618 103.319C19.2983 103.091 19.9674 102.753 20.469 102.304C20.9675 101.843 21.2922 101.318 21.4432 100.727C21.5942 100.137 21.5825 99.5223 21.4082 98.8833C21.1895 98.0817 20.8155 97.466 20.2864 97.0361C19.7424 96.5979 19.0997 96.3925 18.3583 96.42L18.0017 95.113C19.0378 95.0675 19.9567 95.3473 20.7584 95.9525C21.5601 96.5576 22.1194 97.441 22.4363 98.6028C22.6804 99.4973 22.7 100.347 22.4952 101.152C22.2787 101.96 21.8584 102.661 21.2343 103.256C20.5985 103.854 19.7869 104.287 18.7994 104.557Z" fill="black"/>
<path d="M10.0823 83.766C10.0661 83.0196 10.208 82.348 10.5082 81.7513C10.8081 81.1425 11.2794 80.6624 11.9222 80.3112C12.5527 79.9481 13.3314 79.7565 14.2585 79.7363L20.0374 79.6104L20.0645 80.8564L14.4301 80.9792C13.3586 81.0026 12.5458 81.2913 11.9918 81.8454C11.4375 82.3875 11.1704 83.122 11.1906 84.049C11.2113 85.0002 11.5289 85.7521 12.1432 86.3048C12.7575 86.8575 13.6485 87.1212 14.8163 87.0957L20.1979 86.9785L20.2255 88.2426L6.86177 88.5338L6.83422 87.2697L12.0172 87.1567C11.4204 86.8566 10.953 86.409 10.6148 85.8142C10.2763 85.2072 10.0989 84.5245 10.0823 83.766Z" fill="black"/>
<path d="M24.3936 60.059C24.0566 60.9229 23.5618 61.6282 22.909 62.1751C22.2494 62.7063 21.4875 63.036 20.6231 63.1642C19.752 63.2768 18.8396 63.1471 17.886 62.7752C16.9323 62.4032 16.1809 61.8775 15.6316 61.1979C15.0711 60.514 14.7358 59.7498 14.6256 58.9055C14.5043 58.0567 14.6121 57.2004 14.949 56.3366C15.2859 55.4727 15.7864 54.7695 16.4504 54.2271C17.1075 53.6691 17.8716 53.3338 18.7428 53.2212C19.6071 53.0929 20.5161 53.2148 21.4697 53.5868C22.4121 53.9543 23.1636 54.4801 23.7241 55.164C24.2846 55.848 24.6233 56.6199 24.7403 57.4799C24.8461 58.3354 24.7305 59.1952 24.3936 60.059ZM23.367 59.6587C23.6033 59.0528 23.6875 58.4394 23.6195 57.8183C23.5403 57.1928 23.2871 56.6158 22.8599 56.0872C22.4258 55.5431 21.8049 55.1135 20.9972 54.7984C20.1894 54.4834 19.4494 54.3757 18.7771 54.4754C18.0936 54.5708 17.5166 54.824 17.0461 55.235C16.5643 55.6417 16.2053 56.148 15.969 56.7538C15.7327 57.3596 15.6541 57.9753 15.7333 58.6007C15.8013 59.2218 16.0545 59.7989 16.4929 60.3318C16.9245 60.8491 17.5442 61.2653 18.352 61.5804C19.1597 61.8954 19.9032 62.0109 20.5823 61.9268C21.2545 61.827 21.8294 61.5795 22.3068 61.184C22.7773 60.7729 23.1307 60.2645 23.367 59.6587Z" fill="black"/>
<path d="M26.0482 37.1632L34.0614 42.913L33.3242 43.9404L31.9153 42.9294C32.2458 43.5223 32.3676 44.1581 32.2808 44.8369C32.1939 45.5156 31.9329 46.1583 31.4976 46.7649C30.8096 47.7237 29.9544 48.2959 28.9321 48.4812C27.9 48.6596 26.8214 48.3451 25.6962 47.5377L21.0145 44.1784L21.7411 43.1658L26.3054 46.4408C27.1762 47.0657 27.996 47.3278 28.7647 47.2273C29.5405 47.117 30.1987 46.6851 30.7392 45.9317C31.2939 45.1588 31.4916 44.3669 31.3323 43.556C31.1731 42.7451 30.6189 41.9992 29.6699 41.3182L25.3111 38.1906L26.0482 37.1632Z" fill="black"/>
<path d="M34.3737 30.9373C34.1643 30.2969 34.1551 29.6614 34.3459 29.0309C34.5456 28.3922 34.9524 27.7928 35.5662 27.2328L36.455 28.2069L36.2015 28.4382C35.5254 29.0551 35.1491 29.7325 35.0727 30.4706C34.9963 31.2087 35.3477 32.0048 36.1269 32.8588L39.8402 36.9286L38.9061 37.7809L32.2586 30.4952L33.1927 29.6429L34.3737 30.9373Z" fill="black"/>
<path d="M63.2881 23.0245L62.1147 23.4955L51.6705 16.2431L55.6273 26.0998L54.4539 26.5708L49.7501 14.8534L50.9236 14.3824L61.361 21.6181L57.4109 11.7781L58.5843 11.3071L63.2881 23.0245Z" fill="black"/>
<path d="M78.0197 14.7842C78.0764 15.214 78.1078 15.5439 78.1139 15.7738L70.0015 16.8445C70.1351 17.58 70.3976 18.1891 70.7893 18.6719C71.181 19.1546 71.6576 19.4986 72.2192 19.7039C72.7791 19.8972 73.3695 19.9529 73.9903 19.871C74.8022 19.7638 75.4567 19.477 75.9539 19.0106C76.463 18.5425 76.763 17.9624 76.8538 17.2702L78.179 17.0953C78.0663 18.0819 77.6561 18.9317 76.9485 19.6445C76.2513 20.3439 75.3117 20.7716 74.1298 20.9276C73.2105 21.0489 72.3599 20.9547 71.5781 20.6449C70.7947 20.3231 70.1444 19.8138 69.6273 19.1168C69.1205 18.4063 68.8002 17.5436 68.6663 16.5288C68.5323 15.514 68.6179 14.5978 68.923 13.7802C69.228 12.9625 69.7179 12.3027 70.3926 11.8006C71.0673 11.2986 71.8702 10.9861 72.8015 10.8632C73.7327 10.7403 74.5713 10.8361 75.3173 11.1507C76.0753 11.4636 76.685 11.9419 77.1465 12.5855C77.6183 13.2156 77.9094 13.9485 78.0197 14.7842ZM76.7435 14.9162C76.6593 14.1863 76.4282 13.5852 76.05 13.1128C75.6838 12.6388 75.2207 12.3052 74.6607 12.1119C74.1008 11.9186 73.5104 11.8629 72.8895 11.9448C71.9583 12.0677 71.2038 12.471 70.626 13.1546C70.0481 13.8382 69.7951 14.7279 69.8668 15.8238L76.7435 14.9162Z" fill="black"/>
<path d="M98.8631 12.0184L94.4545 21.3659L93.2019 21.193L91.6314 12.6247L87.7981 20.447L86.5276 20.2716L84.8166 10.0792L86.087 10.2546L87.3472 19.0901L91.2583 10.9685L92.5109 11.1414L94.0369 20.0318L97.6285 11.848L98.8631 12.0184Z" fill="black"/>
<path d="M113.938 21.4385C114.61 20.396 115.438 19.6116 116.422 19.0854C117.412 18.5491 118.449 18.3077 119.532 18.3611C120.622 18.4045 121.652 18.7394 122.624 19.3658C123.808 20.1292 124.638 21.065 125.112 22.1734C125.604 23.2782 125.712 24.4657 125.438 25.7359L124.193 24.9333C124.353 24.0189 124.249 23.1571 123.883 22.3477C123.526 21.5448 122.908 20.8595 122.027 20.2919C121.248 19.7894 120.427 19.5181 119.564 19.478C118.712 19.4443 117.887 19.6574 117.089 20.1173C116.298 20.5671 115.612 21.2424 115.031 22.1432C114.45 23.044 114.118 23.9476 114.035 24.8541C113.953 25.7606 114.102 26.5951 114.485 27.3574C114.877 28.1264 115.463 28.762 116.243 29.2644C117.123 29.8321 118 30.1176 118.871 30.1209C119.76 30.1205 120.584 29.864 121.345 29.3513L122.59 30.1538C121.553 30.918 120.43 31.3044 119.22 31.313C118.011 31.3216 116.82 30.9474 115.646 30.1905C114.674 29.5642 113.94 28.7688 113.445 27.8044C112.955 26.8298 112.747 25.7859 112.82 24.6724C112.893 23.559 113.266 22.481 113.938 21.4385Z" fill="black"/>
<path d="M128.141 40.8461C127.523 40.155 127.117 39.3947 126.925 38.5653C126.749 37.7368 126.799 36.9081 127.076 36.0792C127.369 35.2512 127.897 34.496 128.66 33.8136C129.423 33.1312 130.232 32.6986 131.086 32.5159C131.95 32.3252 132.783 32.3716 133.586 32.6551C134.398 32.9306 135.113 33.4139 135.731 34.105C136.349 34.7961 136.75 35.5604 136.934 36.3979C137.135 37.2363 137.088 38.0695 136.795 38.8975C136.518 39.7264 135.999 40.482 135.236 41.1645C134.482 41.8389 133.673 42.2714 132.81 42.4621C131.946 42.6528 131.105 42.606 130.285 42.3215C129.474 42.029 128.759 41.5372 128.141 40.8461ZM128.962 40.1115C129.396 40.5962 129.905 40.9486 130.49 41.1688C131.083 41.381 131.712 41.416 132.377 41.2739C133.059 41.1328 133.722 40.7732 134.369 40.1951C135.015 39.6171 135.446 39.0057 135.661 38.361C135.885 37.7082 135.92 37.0791 135.766 36.4735C135.621 35.8599 135.331 35.3108 134.898 34.8261C134.464 34.3415 133.951 33.9931 133.357 33.7809C132.772 33.5607 132.143 33.5257 131.47 33.6758C130.813 33.8269 130.162 34.1914 129.515 34.7695C128.869 35.3475 128.43 35.9584 128.198 36.6022C127.983 37.2469 127.944 37.8716 128.081 38.4762C128.235 39.0817 128.529 39.6268 128.962 40.1115Z" fill="black"/>
<path d="M147.135 43.9952L135.662 50.8549L135.014 49.7697L146.486 42.9099L147.135 43.9952Z" fill="black"/>
<path d="M151.59 52.8263L139.319 58.1259L138.817 56.9651L151.089 51.6655L151.59 52.8263Z" fill="black"/>
<path d="M149.039 72.0112C148.616 72.107 148.29 72.1684 148.062 72.1954L146.254 64.2149C145.534 64.4151 144.951 64.7323 144.506 65.1665C144.061 65.6006 143.762 66.1067 143.609 66.6846C143.468 67.2599 143.467 67.8529 143.605 68.4637C143.786 69.2623 144.131 69.8879 144.641 70.3403C145.154 70.8045 145.759 71.0502 146.457 71.0774L146.752 72.3811C145.759 72.359 144.875 72.0282 144.101 71.3888C143.341 70.7584 142.829 69.8618 142.566 68.6991C142.361 67.7948 142.377 66.9392 142.614 66.1323C142.863 65.3227 143.31 64.6286 143.957 64.05C144.618 63.4804 145.448 63.0825 146.446 62.8564C147.445 62.6302 148.365 62.6317 149.207 62.8607C150.049 63.0898 150.751 63.5173 151.313 64.1433C151.874 64.7692 152.259 65.5403 152.466 66.4563C152.674 67.3724 152.655 68.2163 152.41 68.9879C152.168 69.7713 151.747 70.4222 151.148 70.9406C150.564 71.4681 149.861 71.8249 149.039 72.0112ZM148.791 70.7524C149.51 70.6018 150.087 70.3167 150.523 69.8969C150.962 69.4889 151.251 68.9973 151.393 68.422C151.534 67.8467 151.536 67.2537 151.397 66.6429C151.19 65.7268 150.719 65.0123 149.986 64.4994C149.252 63.9865 148.343 63.8158 147.258 63.9875L148.791 70.7524Z" fill="black"/>
<path d="M149.224 78.5973C150.248 78.6135 151.135 78.8323 151.887 79.2536C152.652 79.6752 153.233 80.2505 153.631 80.9794C154.041 81.7085 154.238 82.5366 154.224 83.4638C154.204 84.6799 153.888 85.6745 153.273 86.4476C152.658 87.2328 151.832 87.7316 150.792 87.9439L150.814 86.5894C151.527 86.432 152.087 86.0736 152.493 85.5139C152.911 84.9665 153.127 84.2774 153.14 83.4466C153.15 82.7844 153.009 82.186 152.717 81.6514C152.424 81.1169 151.979 80.6883 151.382 80.3657C150.797 80.0554 150.071 79.8933 149.204 79.8796C148.337 79.8659 147.6 80.0048 146.993 80.2963C146.386 80.5998 145.928 81.0141 145.619 81.5391C145.309 82.0641 145.149 82.6578 145.139 83.32C145.126 84.1508 145.313 84.8463 145.702 85.4065C146.102 85.9789 146.663 86.3551 147.382 86.5351L147.361 87.8896C146.353 87.6449 145.548 87.1203 144.947 86.3159C144.345 85.5115 144.054 84.5072 144.073 83.3031C144.088 82.376 144.306 81.5545 144.726 80.8385C145.159 80.1227 145.758 79.5661 146.523 79.1688C147.3 78.7716 148.201 78.5811 149.224 78.5973Z" fill="black"/>
<path d="M151.4 97.3921L145.423 96.064C144.835 95.9335 144.405 95.955 144.132 96.1288C143.859 96.3025 143.659 96.6715 143.534 97.2358L143.283 98.3643L142.225 98.1292L142.519 96.8067C142.712 95.9368 143.056 95.3347 143.55 95.0003C144.055 94.6685 144.772 94.6057 145.701 94.8121L151.679 96.1402L151.976 94.8L153.017 95.0312L152.719 96.3713L155.135 96.908L154.857 98.16L152.441 97.6233L151.853 100.268L150.813 100.037L151.4 97.3921Z" fill="black"/>
<path d="M151.08 108.672C151.171 108.436 151.334 108.266 151.567 108.162C151.801 108.059 152.041 108.055 152.288 108.15C152.535 108.245 152.705 108.407 152.798 108.636C152.901 108.87 152.908 109.105 152.817 109.341C152.726 109.577 152.563 109.746 152.33 109.85C152.108 109.958 151.873 109.964 151.626 109.869C151.379 109.774 151.203 109.609 151.1 109.376C150.996 109.142 150.99 108.908 151.08 108.672ZM149.117 108.593L139.914 105.047L140.368 103.867L149.572 107.413L149.117 108.593Z" fill="black"/>
<path d="M134.807 114.911C135.298 114.124 135.916 113.523 136.659 113.107C137.405 112.708 138.215 112.525 139.088 112.559C139.965 112.611 140.838 112.907 141.706 113.45C142.574 113.992 143.214 114.648 143.628 115.418C144.052 116.194 144.239 117.007 144.191 117.858C144.153 118.714 143.888 119.535 143.396 120.322C142.905 121.108 142.283 121.706 141.529 122.116C140.78 122.542 139.967 122.73 139.09 122.679C138.217 122.644 137.346 122.356 136.478 121.813C135.621 121.277 134.98 120.621 134.556 119.845C134.132 119.069 133.943 118.247 133.987 117.381C134.042 116.52 134.316 115.697 134.807 114.911ZM135.741 115.495C135.397 116.046 135.2 116.633 135.152 117.256C135.113 117.885 135.255 118.499 135.577 119.098C135.902 119.713 136.432 120.251 137.168 120.71C137.903 121.17 138.61 121.413 139.289 121.44C139.979 121.473 140.593 121.331 141.131 121.015C141.68 120.705 142.127 120.274 142.471 119.722C142.816 119.171 143.008 118.581 143.046 117.951C143.094 117.328 142.953 116.714 142.621 116.109C142.293 115.521 141.761 114.997 141.026 114.537C140.291 114.078 139.582 113.826 138.899 113.783C138.22 113.756 137.609 113.893 137.066 114.193C136.528 114.509 136.086 114.943 135.741 115.495Z" fill="black"/>
<path d="M131.892 134.528C131.038 135.342 130.087 135.741 129.04 135.725C128.001 135.717 127.003 135.213 126.048 134.21L122.058 130.027L122.96 129.167L126.85 133.246C127.589 134.021 128.351 134.427 129.133 134.462C129.907 134.506 130.63 134.208 131.301 133.568C131.99 132.912 132.331 132.17 132.325 131.344C132.319 130.518 131.913 129.682 131.107 128.837L127.392 124.941L128.307 124.068L135.113 131.206L134.198 132.079L133.039 130.863C133.228 131.515 133.217 132.157 133.006 132.791C132.803 133.434 132.432 134.013 131.892 134.528Z" fill="black"/>
<path d="M113.46 135.74C114.438 135.169 115.369 134.924 116.254 135.007C117.135 135.106 117.839 135.524 118.368 136.261L117.245 136.917C116.914 136.469 116.462 136.21 115.891 136.14C115.315 136.086 114.69 136.256 114.014 136.651C113.421 136.998 113.041 137.408 112.872 137.884C112.693 138.365 112.725 138.813 112.968 139.229C113.139 139.52 113.372 139.705 113.668 139.782C113.965 139.86 114.289 139.866 114.641 139.8C114.989 139.75 115.443 139.645 116.005 139.484C116.736 139.279 117.348 139.145 117.84 139.08C118.333 139.016 118.813 139.062 119.282 139.22C119.747 139.395 120.141 139.758 120.463 140.309C120.706 140.725 120.806 141.182 120.763 141.682C120.72 142.181 120.531 142.668 120.195 143.144C119.859 143.619 119.4 144.027 118.818 144.367C117.903 144.902 117.028 145.1 116.193 144.96C115.365 144.831 114.692 144.373 114.177 143.586L115.268 142.948C115.591 143.429 116.023 143.714 116.563 143.803C117.099 143.908 117.678 143.778 118.302 143.413C118.853 143.091 119.224 142.7 119.415 142.239C119.606 141.779 119.59 141.356 119.365 140.972C119.17 140.639 118.91 140.421 118.585 140.319C118.256 140.232 117.904 140.215 117.529 140.266C117.161 140.328 116.68 140.435 116.085 140.587C115.374 140.78 114.792 140.904 114.337 140.961C113.882 141.018 113.436 140.971 113 140.822C112.564 140.672 112.195 140.351 111.892 139.858C111.625 139.401 111.51 138.917 111.546 138.407C111.589 137.908 111.773 137.424 112.099 136.955C112.424 136.485 112.878 136.081 113.46 135.74Z" fill="black"/>
<g clip-path="url(#clip0_167_10405)">
<g filter="url(#filter0_f_167_10405)">
<path d="M101.046 85.3465C101.048 85.8256 100.925 86.2969 100.69 86.7145C100.455 87.1322 100.116 87.4819 99.7058 87.7296L74.2901 103.278C73.8616 103.54 73.3708 103.683 72.8684 103.692C72.366 103.702 71.8703 103.577 71.4324 103.33C70.9986 103.088 70.6373 102.734 70.3855 102.306C70.1338 101.877 70.0007 101.39 70 100.893V69.8003C70.0007 69.3034 70.1338 68.8156 70.3855 68.3872C70.6373 67.9587 70.9986 67.605 71.4324 67.3625C71.8703 67.1162 72.366 66.9912 72.8684 67.0005C73.3708 67.0098 73.8616 67.153 74.2901 67.4154L99.7058 82.9633C100.116 83.2111 100.455 83.5608 100.69 83.9784C100.925 84.396 101.048 84.8673 101.046 85.3465Z" fill="url(#paint0_radial_167_10405)"/>
</g>
<path d="M101.042 81.284C101.043 81.7631 100.92 82.2344 100.685 82.652C100.45 83.0697 100.111 83.4194 99.7009 83.6671L74.2852 99.215C73.8567 99.4774 73.3659 99.6207 72.8635 99.63C72.3612 99.6393 71.8654 99.5143 71.4275 99.268C70.9937 99.0255 70.6324 98.6718 70.3807 98.2433C70.1289 97.8149 69.9958 97.3271 69.9951 96.8301V65.7378C69.9958 65.2409 70.1289 64.7531 70.3807 64.3247C70.6324 63.8962 70.9937 63.5425 71.4275 63.3C71.8654 63.0537 72.3612 62.9287 72.8635 62.938C73.3659 62.9473 73.8567 63.0905 74.2852 63.3529L99.7009 78.9008C100.111 79.1486 100.45 79.4983 100.685 79.9159C100.92 80.3335 101.043 80.8048 101.042 81.284Z" fill="#CC0032"/>
</g>
<defs>
<filter id="filter0_f_167_10405" x="66" y="63" width="39.0469" height="44.6934" filterUnits="userSpaceOnUse" color-interpolation-filters="sRGB">
<feFlood flood-opacity="0" result="BackgroundImageFix"/>
<feBlend mode="normal" in="SourceGraphic" in2="BackgroundImageFix" result="shape"/>
<feGaussianBlur stdDeviation="2" result="effect1_foregroundBlur_167_10405"/>
</filter>
<radialGradient id="paint0_radial_167_10405" cx="0" cy="0" r="1" gradientUnits="userSpaceOnUse" gradientTransform="translate(84.5 89) rotate(-112.751) scale(16.8077 14.2213)">
<stop stop-color="#CC0032"/>
<stop offset="1" stop-color="#CC0032" stop-opacity="0"/>
</radialGradient>
<clipPath id="clip0_167_10405">
<rect width="45.1584" height="45.1584" fill="white" transform="translate(58.7051 58.7051)"/>
</clipPath>
</defs>
</svg>
